<svg width="22" height="22" viewBox="0 0 22 22" fill="none" xmlns="http://www.w3.org/2000/svg">
<path d="M10.9987 1.83334C11.5084 1.83334 12.007 1.87368 12.4947 1.95434L10.7787 3.67034C9.34813 3.71327 7.9614 4.17387 6.78943 4.99537C5.61746 5.81687 4.71149 6.96335 4.1832 8.29349C3.65491 9.62363 3.52739 11.0793 3.81636 12.481C4.10533 13.8828 4.79816 15.1693 5.80944 16.1821C6.82072 17.1948 8.10625 17.8895 9.50757 18.1805C10.9089 18.4715 12.3647 18.3461 13.6956 17.8198C15.0265 17.2934 16.1743 16.3891 16.9975 15.2183C17.8207 14.0476 18.2834 12.6615 18.3284 11.231L20.0462 9.51501C20.1256 9.99779 20.1654 10.4928 20.1654 11C20.1654 12.813 19.6278 14.5853 18.6205 16.0927C17.6133 17.6002 16.1816 18.7751 14.5066 19.4689C12.8316 20.1627 10.9885 20.3442 9.21037 19.9905C7.43222 19.6368 5.79887 18.7638 4.51689 17.4818C3.23491 16.1998 2.36187 14.5665 2.00817 12.7883C1.65447 11.0102 1.836 9.16707 2.52981 7.49208C3.22361 5.81709 4.39852 4.38545 5.90597 3.37821C7.41342 2.37096 9.18571 1.83334 10.9987 1.83334ZM19.1405 2.86368C18.8147 2.53778 18.4278 2.27927 18.0021 2.10289C17.5763 1.92652 17.12 1.83574 16.6591 1.83574C16.1983 1.83574 15.7419 1.92652 15.3162 2.10289C14.8904 2.27927 14.5035 2.53778 14.1777 2.86368L9.44037 7.60101C9.34061 7.70103 9.26532 7.82275 9.22037 7.95668L7.41637 13.31C7.35649 13.4879 7.34743 13.6789 7.3902 13.8616C7.43297 14.0443 7.52588 14.2115 7.65848 14.3442C7.79107 14.477 7.95809 14.5702 8.14075 14.6132C8.3234 14.6563 8.51444 14.6475 8.69237 14.5878L14.0457 12.7875C14.1803 12.7428 14.3027 12.6675 14.4032 12.5675L19.1405 7.82834C19.4664 7.5025 19.7249 7.11564 19.9013 6.68988C20.0777 6.26412 20.1685 5.80778 20.1685 5.34693C20.1685 4.88608 20.0777 4.42974 19.9013 4.00397C19.7249 3.57821 19.4664 3.18952 19.1405 2.86368Z" fill="white"/>
</svg>
